<svg width="32" height="32" viewBox="0 0 32 32" fill="none" xmlns="http://www.w3.org/2000/svg">
<path d="M25.3333 2.66667H6.66666C5.60579 2.66667 4.58838 3.0881 3.83823 3.83824C3.08808 4.58839 2.66666 5.60581 2.66666 6.66667V25.3333C2.66666 26.3942 3.08808 27.4116 3.83823 28.1618C4.58838 28.9119 5.60579 29.3333 6.66666 29.3333H25.3333C26.3942 29.3333 27.4116 28.9119 28.1618 28.1618C28.9119 27.4116 29.3333 26.3942 29.3333 25.3333V6.66667C29.3333 5.60581 28.9119 4.58839 28.1618 3.83824C27.4116 3.0881 26.3942 2.66667 25.3333 2.66667ZM21.4533 5.33334L16.12 10.6667H10.5467L15.88 5.33334H21.4533ZM5.33332 6.66667C5.33332 6.31305 5.4738 5.97391 5.72385 5.72386C5.9739 5.47381 6.31303 5.33334 6.66666 5.33334H12.12L6.78666 10.6667H5.33332V6.66667ZM26.6667 25.3333C26.6667 25.687 26.5262 26.0261 26.2761 26.2761C26.0261 26.5262 25.6869 26.6667 25.3333 26.6667H6.66666C6.31303 26.6667 5.9739 26.5262 5.72385 26.2761C5.4738 26.0261 5.33332 25.687 5.33332 25.3333V13.3333H26.6667V25.3333ZM26.6667 10.6667H19.88L25.2133 5.33334H25.3333C25.6869 5.33334 26.0261 5.47381 26.2761 5.72386C26.5262 5.97391 26.6667 6.31305 26.6667 6.66667V10.6667Z" fill="#4275FA"/>
</svg>
