<svg width="32" height="32" viewBox="0 0 32 32" fill="none" xmlns="http://www.w3.org/2000/svg">
<path d="M11.6133 19.0533C11.4257 18.8686 11.1876 18.7435 10.9291 18.6937C10.6705 18.6438 10.403 18.6716 10.1602 18.7733C9.99478 18.8333 9.84455 18.9289 9.72013 19.0533C9.59572 19.1777 9.50016 19.3279 9.4402 19.4933C9.35372 19.6961 9.31887 19.9172 9.33876 20.1368C9.35866 20.3563 9.43268 20.5675 9.55421 20.7515C9.67573 20.9354 9.84097 21.0863 10.0351 21.1908C10.2293 21.2952 10.4463 21.3499 10.6668 21.3499C10.8872 21.3499 11.1042 21.2952 11.2984 21.1908C11.4926 21.0863 11.6578 20.9354 11.7793 20.7515C11.9008 20.5675 11.9749 20.3563 11.9948 20.1368C12.0147 19.9172 11.9798 19.6961 11.8933 19.4933C11.8259 19.3317 11.7312 19.1829 11.6133 19.0533ZM22.28 19.0533C22.0222 18.8154 21.6842 18.6832 21.3334 18.6832C20.9825 18.6832 20.6446 18.8154 20.3868 19.0533C20.2689 19.1829 20.1742 19.3318 20.1068 19.4934C20.0027 19.7359 19.9738 20.004 20.0237 20.263C20.0736 20.5221 20.2 20.7602 20.3867 20.9467C20.5162 21.0645 20.6651 21.1592 20.8268 21.2267C20.9863 21.2971 21.1588 21.3334 21.3333 21.3334C21.5077 21.3334 21.6802 21.2971 21.8398 21.2267C22.0013 21.1589 22.1501 21.0642 22.2799 20.9467C22.4665 20.7602 22.593 20.5221 22.6429 20.2631C22.6928 20.004 22.6639 19.736 22.5599 19.4936C22.4925 19.3319 22.3978 19.183 22.28 19.0533ZM25.7459 25.1937C26.6898 24.4413 27.4103 23.4454 27.8296 22.3135C28.2489 21.1815 28.3511 19.9565 28.125 18.7708L26.125 8.10411C25.8383 6.57622 25.0267 5.19655 23.8305 4.20367C22.6343 3.21079 21.1288 2.66712 19.5742 2.66667H12.4258C10.8712 2.66714 9.36568 3.21082 8.1695 4.20371C6.97333 5.1966 6.16171 6.57627 5.87499 8.10417L3.87499 18.7708C3.64897 19.9566 3.75111 21.1816 4.1704 22.3135C4.58969 23.4455 5.3102 24.4414 6.25414 25.1938L4.39066 27.0573C4.26502 27.1807 4.16507 27.3278 4.09657 27.49C4.02808 27.6522 3.99241 27.8264 3.99161 28.0025C3.99081 28.1786 4.02491 28.3531 4.09193 28.5159C4.15895 28.6788 4.25756 28.8267 4.38208 28.9512C4.5066 29.0758 4.65455 29.1744 4.81739 29.2414C4.98023 29.3084 5.15473 29.3425 5.33082 29.3417C5.50691 29.3409 5.6811 29.3052 5.84333 29.2368C6.00555 29.1683 6.15261 29.0683 6.27599 28.9427L8.76818 26.4505C9.30947 26.5917 9.86637 26.6644 10.4258 26.6667H21.5742C22.1336 26.6644 22.6905 26.5918 23.2318 26.4505L25.724 28.9427C25.9748 29.189 26.3127 29.3262 26.6642 29.3246C27.0156 29.323 27.3523 29.1827 27.6008 28.9342C27.8494 28.6856 27.9897 28.349 27.9913 27.9975C27.9929 27.646 27.8556 27.3081 27.6093 27.0573L25.7459 25.1937ZM8.49478 8.59636C8.66717 7.67966 9.15429 6.85194 9.87202 6.25617C10.5897 5.66041 11.493 5.334 12.4258 5.33334H19.5742C20.507 5.334 21.4102 5.66041 22.128 6.25617C22.8457 6.85194 23.3328 7.67966 23.5052 8.59636L23.9674 11.0616C22.972 12.1944 21.7464 13.1018 20.3725 13.7235C18.9986 14.3451 17.508 14.6667 16 14.6667C14.492 14.6667 13.0013 14.3451 11.6274 13.7235C10.2535 13.1018 9.02799 12.1944 8.03254 11.0616L8.49478 8.59636ZM24.651 22.5547C24.2764 23.0075 23.8063 23.3719 23.2744 23.6217C22.7425 23.8716 22.1619 24.0008 21.5742 24H10.4258C9.83813 23.9998 9.25775 23.8701 8.72589 23.6202C8.19403 23.3703 7.72375 23.0064 7.34848 22.5541C6.97321 22.1019 6.70217 21.5726 6.55462 21.0038C6.40707 20.435 6.38664 19.8406 6.49478 19.263L7.44286 14.2066C9.83698 16.2258 12.868 17.3333 16 17.3333C19.1319 17.3333 22.163 16.2258 24.5571 14.2066L25.5052 19.263C25.6143 19.8407 25.5943 20.4354 25.4467 21.0045C25.299 21.5736 25.0273 22.1029 24.651 22.5547Z" fill="#4275FA"/>
</svg>
